<svg viewBox="0 0 1000 1004.1441" xmlns="http://www.w3.org/2000/svg"><path d="m817 500.144c75 0 137 58 141 133v188c0 75-58 137-133 142h-187c-75 0-138-59-142-134v-187c0-75 58-138 133-142zm0 42h-179c-50 0-96 41-100 91v188c0 50 41 96 91 100h188c50 0 96-42 100-92v-187c0-50-42-96-92-100zm-88 66c67 0 121 54 121 121s-54 121-121 121-121-54-121-121 55-121 121-121zm-521-25c25 0 42 17 42 42v167c0 25-17 41-42 41h-166c-25 0-42-16-42-41v-167c0-25 17-42 42-42zm242 0c13 0 21 9 21 21 0 8-8 17-17 21h-121v167h117c13 0 21 8 21 20 0 9-8 17-17 21h-121c-20 0-37-16-41-37v-171c0-21 16-38 37-42zm279 67c-41 0-79 33-79 79 0 42 33 79 79 79s79-33 79-79c0-42-37-79-79-79zm-521-25h-166v167h166zm650-38c17 0 30 13 30 30 0 16-13 29-30 29s-29-13-29-29c0-17 13-30 29-30zm-650-295c25 0 42 16 42 41v167c0 25-17 42-42 42h-166c-25 0-42-17-42-42v-167c0-25 17-41 42-41zm292 0c25 0 42 16 42 41v134c0 12-9 20-21 20s-21-12-21-20v-134h-167v167h125c13 0 21 8 21 21s-8 21-21 21h-125c-25 0-41-17-41-42v-167c0-25 16-41 41-41zm-292 41h-166v167h166zm584-41c25 0 41 16 41 41v109c0 12-8 20-20 20s-21-8-21-20v-109h-167v109c0 12-8 20-21 20s-21-8-21-20v-109c0-25 17-41 42-41zm-584-292c25 0 42 17 42 42v166c0 25-17 42-42 42h-166c-25 0-42-17-42-42v-166c0-25 17-42 42-42zm292 0c21 0 38 17 42 37v171c0 21-17 38-38 42h-171c-20 0-37-17-41-38v-170c0-21 16-38 37-42zm292 0c21 0 37 17 41 37v171c0 21-16 38-37 42h-171c-21 0-37-17-42-38v-170c0-21 17-38 38-42zm-584 42h-166v166h166zm292 0h-167v166h167zm292 0h-167v166h167z"/></svg>